<mxfile host="app.diagrams.net" modified="2024-04-18T01:25:40.726Z" agent="Mozilla/5.0 (Windows NT 10.0; Win64; x64) AppleWebKit/537.36 (KHTML, like Gecko) Chrome/123.0.0.0 Safari/537.36" etag="nDqS5cv8Cl2AUB2l9MVR" version="24.2.5" type="github">
  <diagram id="VPInBv7yuRbI5kuWf77I" name="第 1 页">
    <mxGraphModel dx="2630" dy="1507" grid="1" gridSize="10" guides="1" tooltips="1" connect="1" arrows="1" fold="1" page="1" pageScale="1" pageWidth="827" pageHeight="1169" math="0" shadow="0">
      <root>
        <mxCell id="0" />
        <mxCell id="1" parent="0" />
        <mxCell id="JuyvDTA_gH8UCE2vKSZS-2" value="" style="shape=image;verticalLabelPosition=bottom;labelBackgroundColor=default;verticalAlign=top;aspect=fixed;imageAspect=0;image=https://cloudnote-dgg.huawei.com/ks/note/view/77d5f900-ee1c-11ed-8397-3149655660c0/8e061770-cd6c-11ee-b89b-5dd7fbe52b18/index_files/1708157663213-iqt.png;" vertex="1" parent="1">
          <mxGeometry x="10" y="70" width="1155" height="1165" as="geometry" />
        </mxCell>
        <mxCell id="JuyvDTA_gH8UCE2vKSZS-4" value="" style="shape=image;verticalLabelPosition=bottom;labelBackgroundColor=default;verticalAlign=top;aspect=fixed;imageAspect=0;image=https://cloudnote-dgg.huawei.com/ks/note/view/77d5f900-ee1c-11ed-8397-3149655660c0/8e061770-cd6c-11ee-b89b-5dd7fbe52b18/index_files/1708157663213-iqt.png;" vertex="1" parent="1">
          <mxGeometry x="40" y="1390" width="1155" height="1165" as="geometry" />
        </mxCell>
      </root>
    </mxGraphModel>
  </diagram>
</mxfile>
